# xmcd
# Track frame offsets:
# 150
# 21073
# 35537
# 57813
# 71675
# 91747
# 109452
# 127644
# 145858
# 164271
# 181659
# 197713
# 213591
# 228136
# 245766
#
# Disc length: 3556 seconds
# Revision: 0
# Processed by: cddbd v1.5.2PL0 Copyright (c) Steve Scherf et al.
# Submitted via: VisiTrax 2.9.9.209 - For more info visit www.synapsa.com
#
DISCID=c70de20f
DTITLE=Toby Walker (Little) - Live at the Bottleneck
DYEAR=2004
DGENRE=Acoustic Guitar
TTITLE0=I Know You Rider
TTITLE1=Main Street Rag
TTITLE2=Matchbox Blues
TTITLE3=Good Liquor
TTITLE4=Baby Who You Waiting For
TTITLE5=Things I Used To Do All Night
TTITLE6=Devil Beatin' On His Wife
TTITLE7=True Religion
TTITLE8=Schoolboy Blues
TTITLE9=Weak Willed
TTITLE10=Son Of A Mule Skinner Man
TTITLE11=Hacksaw Rag/Cincinnati Flow Rag
TTITLE12=Glory, Glory
TTITLE13=Corrina
TTITLE14=Who's Gonna Be Your Sweetheart Tonight
EXTD=
EXTT0=
EXTT1=
EXTT2=
EXTT3=
EXTT4=
EXTT5=
EXTT6=
EXTT7=
EXTT8=
EXTT9=
EXTT10=
EXTT11=
EXTT12=
EXTT13=
EXTT14=
PLAYORDER=
